<?xml version="1.0" standalone="no"?>
<!DOCTYPE svg PUBLIC "-//W3C//DTD SVG 20010904//EN"
 "http://www.w3.org/TR/2001/REC-SVG-20010904/DTD/svg10.dtd">
<svg version="1.0" xmlns="http://www.w3.org/2000/svg"
 width="880.000000pt" height="406.000000pt" viewBox="0 0 880.000000 406.000000"
 preserveAspectRatio="xMidYMid meet">

<g transform="translate(0.000000,406.000000) scale(0.100000,-0.100000)"
fill="#000000" stroke="none">
<path d="M6130 3789 c-272 -15 -532 -110 -700 -257 l-51 -44 -127 65 c-286
146 -539 204 -857 194 -194 -6 -329 -29 -495 -83 -143 -48 -345 -150 -462
-234 -53 -39 -101 -70 -106 -70 -6 0 -39 13 -74 30 -117 55 -215 73 -358 67
-188 -8 -316 -46 -819 -239 -322 -124 -427 -157 -524 -165 -94 -8 -97 -17 -68
-166 112 -573 521 -1094 981 -1250 62 -21 159 -44 253 -59 13 -2 28 -34 57
-119 57 -173 132 -312 247 -462 25 -32 38 -57 31 -57 -36 0 -319 55 -448 86
-394 97 -514 153 -1210 566 -434 257 -604 343 -708 354 -95 11 -151 -63 -151
-201 0 -38 3 -86 8 -107 l8 -36 -131 -4 c-114 -3 -137 -6 -179 -27 -64 -31
-90 -72 -84 -130 15 -139 270 -489 559 -766 194 -186 402 -342 577 -432 89
-46 112 -48 132 -11 17 31 2 52 -58 82 -185 91 -401 254 -614 466 -219 218
-376 415 -465 586 -45 87 -44 98 11 120 37 14 65 16 163 10 64 -3 131 -9 149
-12 26 -5 34 -2 47 18 14 21 14 28 0 73 -20 67 -29 212 -15 249 11 26 15 28
49 23 79 -13 389 -181 874 -475 196 -119 401 -231 507 -278 264 -116 633 -213
989 -259 l124 -16 86 -70 c443 -359 1077 -485 1677 -333 317 81 559 218 794
452 116 115 144 138 205 165 281 124 607 308 848 478 119 85 212 159 388 308
176 150 354 292 459 365 87 61 222 136 246 136 9 0 19 -26 30 -77 28 -129 45
-187 65 -213 19 -25 20 -25 227 -31 219 -7 283 -18 283 -47 0 -27 -98 -193
-194 -328 -155 -218 -337 -436 -506 -605 -182 -184 -304 -280 -519 -409 -137
-83 -465 -248 -576 -291 -82 -31 -102 -51 -89 -86 6 -19 17 -29 35 -31 30 -4
189 62 381 158 529 264 816 505 1219 1021 193 247 340 487 355 580 9 51 -22
84 -104 110 -55 18 -100 22 -254 26 -161 5 -188 8 -192 22 -3 9 -14 57 -25
107 -25 115 -43 158 -75 180 -86 56 -325 -85 -744 -440 -351 -297 -495 -404
-757 -561 -119 -72 -448 -245 -465 -245 -4 0 16 46 45 103 58 117 105 253 137
401 19 88 22 130 22 326 0 160 -5 247 -16 302 l-15 77 55 27 c206 101 435 493
523 896 26 118 56 174 147 270 61 63 73 82 70 105 -3 24 -11 31 -58 50 -148
58 -464 87 -770 72z m377 -104 c99 -5 264 -27 301 -40 10 -4 1 -20 -28 -53
-75 -84 -117 -167 -140 -276 -48 -221 -173 -514 -284 -664 -58 -79 -158 -166
-200 -174 -15 -2 -23 13 -46 83 -52 157 -156 355 -262 498 l-33 43 50 46 c59
53 184 137 273 181 113 57 360 128 457 132 28 1 27 2 -10 11 -23 5 -117 7
-220 5 -279 -8 -439 -52 -605 -165 l-85 -58 -100 84 c-55 46 -101 88 -103 92
-6 16 121 102 223 151 176 84 390 123 625 113 41 -2 125 -6 187 -9z m-1732
-65 c509 -109 922 -427 1150 -885 73 -146 113 -261 146 -415 20 -91 23 -135
24 -325 0 -195 -3 -232 -23 -324 -104 -463 -390 -822 -827 -1037 -594 -291
-1368 -222 -1868 169 -106 83 -259 243 -321 336 -68 102 -139 241 -174 342
l-30 85 108 12 c127 14 285 52 350 84 41 21 45 27 46 59 1 25 11 49 32 75 72
90 122 255 122 401 0 160 -59 398 -132 536 -41 76 -144 180 -229 230 -109 64
-272 106 -413 107 -91 0 -257 -28 -388 -66 -66 -19 -127 -38 -134 -42 -9 -5
41 -9 113 -9 281 -2 517 -64 725 -190 75 -45 77 -48 127 -142 134 -258 181
-550 126 -788 l-16 -71 -82 -25 c-300 -94 -578 -77 -832 48 -284 141 -556 458
-695 812 -33 84 -100 313 -100 343 0 5 15 11 33 15 94 19 240 67 487 162 498
191 676 243 837 243 214 0 446 -121 579 -301 32 -43 41 -50 67 -47 16 2 34 10
40 19 21 33 -4 74 -103 171 l-99 97 106 71 c174 117 327 185 524 234 154 38
224 45 434 41 146 -3 213 -8 290 -25z"/>
<path d="M5405 2701 c-79 -19 -126 -75 -133 -157 -5 -65 9 -104 54 -144 89
-78 213 -57 271 45 72 127 -51 290 -192 256z"/>
<path d="M4020 2528 c-117 -59 -144 -206 -57 -305 83 -94 211 -94 294 0 113
128 24 327 -147 327 -28 0 -63 -9 -90 -22z"/>
<path d="M4875 2379 c-365 -48 -645 -332 -645 -654 0 -283 214 -503 540 -555
77 -12 235 -12 305 0 28 4 51 7 53 5 9 -8 -135 -47 -223 -60 -117 -17 -320
-20 -432 -4 -131 18 -279 72 -359 132 -117 88 -209 222 -238 346 -17 74 -29
91 -67 91 -78 0 -77 -106 4 -265 88 -176 245 -312 430 -373 159 -53 255 -65
477 -59 216 6 337 26 437 72 98 44 127 91 86 137 -14 16 -14 18 0 18 8 0 60
22 115 50 223 112 351 297 352 510 0 192 -83 350 -245 465 -159 114 -390 170
-590 144z m295 -115 c173 -41 333 -161 401 -300 33 -66 34 -74 34 -185 0 -113
-1 -116 -38 -191 -68 -139 -211 -245 -402 -300 -106 -30 -353 -33 -455 -5
-141 38 -267 125 -324 221 -76 130 -73 309 7 460 38 73 141 178 219 224 158
93 365 121 558 76z"/>
<path d="M4877 1992 c-24 -26 -25 -362 -2 -386 27 -26 56 -29 84 -8 l26 19 3
176 c2 166 1 178 -18 197 -25 25 -72 26 -93 2z"/>
<path d="M5277 1992 c-15 -16 -17 -45 -17 -193 0 -96 4 -179 8 -185 13 -20 52
-35 72 -29 47 15 50 26 50 215 0 173 -1 179 -22 194 -30 21 -71 20 -91 -2z"/>
</g>
</svg>
